<?xml version="1.0" encoding="UTF-8"?>
<!DOCTYPE svg PUBLIC "-//W3C//DTD SVG 1.1//EN" "http://www.w3.org/Graphics/SVG/1.1/DTD/svg11.dtd">
<!-- Creator: CorelDRAW 2018 (64 Bit Versão de avaliação) -->
<svg xmlns="http://www.w3.org/2000/svg" xml:space="preserve" width="88.9988mm" height="16.3922mm" version="1.1" style="shape-rendering:geometricPrecision; text-rendering:geometricPrecision; image-rendering:optimizeQuality; fill-rule:evenodd; clip-rule:evenodd"
viewBox="0 0 8803.81 1621.53"
 xmlns:xlink="http://www.w3.org/1999/xlink">
 <defs>
  <style type="text/css">
   <![CDATA[
    .fil0 {fill:#09BAB2}
    .fil2 {fill:#A355A0}
    .fil3 {fill:#FBB33C}
    .fil1 {fill:#373435;fill-rule:nonzero}
   ]]>
  </style>
 </defs>
 <g id="Camada_x0020_1">
  <metadata id="CorelCorpID_0Corel-Layer"/>
  <path class="fil0" d="M5279.45 558.48c32.49,77.62 48.79,161.35 48.79,251.18 0,92 -16.3,177.19 -48.79,255.51 -32.48,78.26 -81.12,149.48 -145.83,213.64 -64.96,64 -136.52,112.03 -214.77,144.13 -78.37,32.14 -163.14,48.27 -254.27,48.27 -91.92,0 -177.32,-16.21 -256.23,-48.56 -78.75,-32.28 -150.81,-80.59 -215.97,-144.84 -65.17,-64.59 -114.11,-135.93 -146.76,-213.97l-1.02 -2.45 -0.5 -1.21 -0.5 -1.26 -0.99 -2.42 -0.02 -0.04 -0.99 -2.47 -0.46 -1.18 -0.5 -1.3 -0.94 -2.4 -0.03 -0.08 -0.28 -0.7c-0.85,-2.21 -1.69,-4.42 -2.52,-6.63l0 -0.02 -0.04 -0.11 -0.93 -2.5 -0.41 -1.11 -0.5 -1.39 -0.85 -2.34 -0.06 -0.16 -0.29 -0.8c-0.77,-2.17 -1.53,-4.34 -2.28,-6.52l-0.01 -0.02 -0.07 -0.2 -0.86 -2.52 -0.36 -1.05 -0.49 -1.48 -0.76 -2.29 -0.08 -0.25 -0.83 -2.53 -0.33 -1.01 -0.48 -1.53 -0.72 -2.26 -0.09 -0.29 -0.79 -2.54 -0.31 -0.98 -0.12 -0.4 -0.94 -3.09 -0.1 -0.33 -0.1 -0.33 -0.76 -2.56 -0.55 -1.86 -0.2 -0.7 -0.64 -2.21 -0.1 -0.37 -0.74 -2.57 -0.25 -0.9 -0.46 -1.68 -0.6 -2.18 -0.11 -0.41 -0.7 -2.59 -0.23 -0.86 -0.46 -1.72 -0.55 -2.15 -0.12 -0.46 -0.88 -3.43 -0.45 -1.77 -0.52 -2.12 -0.12 -0.49 -0.63 -2.61 -0.19 -0.79 -0.06 -0.25 -0.67 -2.84 -0.2 -0.83 -0.12 -0.53 -0.6 -2.62 -0.18 -0.75 -0.42 -1.88 -0.46 -2.06 -0.13 -0.57 -0.57 -2.64 -0.01 -0.05 -1.1 -5.24 -0.53 -2.65 -0.14 -0.68 -0.39 -1.98 -0.4 -1.99 -0.13 -0.67 -0.5 -2.66 -0.12 -0.64 -0.38 -2.03 -0.04 -0.22 -0.45 -2.46 -0.47 -2.67 -0.1 -0.6 -0.04 -0.19 -0.55 -3.28 -0.09 -0.53 -0.13 -0.76 -0.45 -2.69 -0.31 -1.94 -0.12 -0.76 -0.3 -1.88 -0.13 -0.81 -0.41 -2.71 -0.08 -0.51 -0.32 -2.19 -0.27 -1.86 -0.13 -0.86 -0.38 -2.71 -0.06 -0.48 -0.31 -2.24 -0.24 -1.82 -0.12 -0.91 -0.35 -2.73 754.91 0 0 -150.32 -757.53 0 0.29 -3.13 0.09 -0.93 0.21 -2.18 0.19 -1.88 0.13 -1.23 0.3 -2.83 0.03 -0.28 0.35 -3.1 0.07 -0.67 0.29 -2.41 0.05 -0.44 0.28 -2.36 0.04 -0.3 0.32 -2.56 0.07 -0.51 0.4 -3.08 0.05 -0.43 0.36 -2.65 0.19 -1.36 0.25 -1.7 0.33 -2.29 0.11 -0.77 0.46 -3.06 0.03 -0.17 0.44 -2.88 0.18 -1.11 0.31 -1.94 0.34 -2.04 0.16 -1 0.5 -2.97 0.01 -0.07 0.66 -3.81 0.04 -0.25 0.6 -3.31 0.08 -0.46 0.24 -1.25 0.5 -2.69 0.06 -0.33 0.58 -3.01 0.12 -0.6 0.47 -2.4 0.31 -1.51 0.09 -0.45 0.6 -2.89 0.12 -0.58 0.12 -0.55 0.63 -2.99 0.08 -0.36 0.57 -2.63 0.29 -1.27 0.39 -1.71 0.49 -2.18 0.18 -0.8 0.7 -2.97 0.03 -0.11 0.68 -2.86 0.02 -0.1 0.53 -2.2 0.17 -0.65 0.47 -1.93 0.26 -1.03 0.72 -2.82 0.03 -0.13 0.28 -1.04 0.69 -2.67 0.57 -2.17 0.46 -1.67 0.35 -1.26 0.16 -0.59 0.64 -2.33 0.82 -2.93 0.16 -0.52 0.68 -2.39 0.04 -0.15 0.6 -2.04 0.21 -0.72 0.68 -2.3 0.85 -2.8 0.21 -0.7 0.09 -0.29 0.8 -2.61 0.37 -1.17 0.54 -1.72 0.65 -2.06 0.27 -0.82 0.94 -2.89 0.01 -0.05 0.94 -2.82 0.31 -0.94 0.65 -1.93 0.61 -1.81 0.06 -0.18 1.24 -3.56 0.06 -0.18 1.01 -2.85 0.25 -0.7 1.18 -3.27 0.16 -0.45 0.46 -1.28 0.9 -2.42 0.15 -0.42 1.06 -2.83 0.18 -0.46 0.9 -2.36 0.51 -1.33 0.58 -1.49 0.85 -2.19 0.25 -0.63 1.12 -2.81 0.09 -0.24 1.05 -2.57 0.45 -1.09 0.7 -1.71 0.8 -1.94 0.36 -0.86 1.18 -2.79c32.85,-77.53 82.05,-148.81 147.38,-213.55 65.58,-64.66 137.73,-113.23 216.31,-145.72 78.75,-32.52 163.73,-48.82 254.9,-48.82 91.24,0 176.06,16.3 254.38,48.82 78.17,32.44 149.73,81.06 214.65,145.72 64.74,64.95 113.35,136.17 145.83,213.63z"/>
  <polygon class="fil1" points="373.76,213.31 373.76,1560.85 528.4,1560.85 528.4,213.31 900.06,213.31 900.06,58.67 -0,58.67 -0,213.31 "/>
  <path class="fil1" d="M1503.63 1043.67l20.29 -10.95c87.19,-47.04 155.98,-109.22 206.29,-186.41 24.98,-38.3 43.78,-79.08 56.22,-121.99 12.43,-42.89 18.69,-88.54 18.69,-136.74 0,-70.96 -13.51,-136.91 -40.49,-197.71 -27.07,-61 -68,-117.54 -122.71,-169.46 -54.71,-51.92 -114.65,-90.88 -179.75,-116.7 -65.05,-25.8 -135.79,-38.72 -212.14,-38.72l-33.12 -0.92 -121.53 -4.87 -25.59 -0.53 0 1502.17 154.65 0 0 -1336.87 25.59 0c55.78,0 107.53,8.85 155.13,26.51 47.73,17.68 91.33,44.32 130.64,79.76 39.38,35.52 69.08,74.83 88.95,117.73 20.01,43.17 30.04,89.72 30.04,139.62 0,48.19 -9.13,93.15 -27.4,134.84 -18.17,41.54 -45.28,79.49 -81.25,113.94 -64.29,61.53 -144.81,99.61 -232.19,113.26 71.75,308.12 315.63,548.56 622.74,610.61l0 -155.4c-190.66,-47.94 -351.43,-185.2 -433.05,-361.16z"/>
  <polygon class="fil1" points="2055.95,1560.85 2210.61,1560.85 2210.61,58.5 2055.95,58.5 "/>
  <path class="fil2" d="M2537 1533.36c18.91,-18.04 28.4,-39.5 28.4,-64.28 0,-12.99 -2.34,-24.95 -7.03,-35.81 -4.69,-10.91 -11.85,-20.95 -21.37,-30.03 -9.76,-9.31 -20.17,-16.26 -31.18,-20.78 -10.84,-4.45 -22.63,-6.71 -35.3,-6.71 -13.19,0 -25.23,2.26 -36.1,6.72 -10.92,4.49 -20.97,11.33 -30.03,20.41 -9.16,9.14 -16,19.19 -20.48,30.11 -4.47,10.85 -6.73,22.91 -6.73,36.1 0,12.63 2.24,24.25 6.65,34.78 4.56,10.67 11.42,20.65 20.56,29.79 9.19,9.19 19.23,16.03 30.05,20.48 10.84,4.46 22.91,6.72 36.08,6.72 12.65,0 24.45,-2.26 35.3,-6.72 11.03,-4.53 21.45,-11.48 31.18,-20.77z"/>
  <path class="fil1" d="M6385.2 1493.49c86.56,-85.22 129.87,-186.41 129.87,-303.57l0 -1131.42 -148.14 0 0 1131.42c0,38.88 -7.55,75.14 -22.62,108.71 -15,33.4 -37.33,63.77 -66.92,91 -29.35,26.98 -60.98,47.37 -94.77,60.98 -33.98,13.69 -69.97,20.58 -107.78,20.58 -38.1,0 -74.06,-7.11 -107.68,-21.24 -33.35,-14 -64.47,-35.04 -93.2,-62.98 -57.89,-56.33 -86.88,-122.02 -86.88,-197.05l0 -1131.42 -154.65 0 0 1131.42c0,117.16 43.33,218.35 129.88,303.57 86.67,85.34 190.91,128.02 312.54,128.02 60.31,0 116.26,-10.64 167.7,-31.85 51.59,-21.27 99.19,-53.36 142.66,-96.17z"/>
  <path class="fil1" d="M7414.12 65.37c-18.99,-9.42 -37.43,-17.71 -55.27,-24.91 -25.46,-10.26 -49.41,-18.25 -71.89,-23.93 -22.32,-5.5 -46.39,-9.67 -72.08,-12.41 -25.62,-2.74 -53.37,-4.12 -83.15,-4.12 -70.96,0 -134.35,9.69 -190.12,29.09 -55.17,19.17 -103.38,47.96 -144.45,86.32 -41.03,38.47 -71.79,82.35 -92.23,131.59 -20.48,49.41 -30.76,104.69 -30.76,165.8 0,50.23 9.86,99.86 29.54,148.71 19.77,49.24 49.6,98.07 89.38,146.43 79.46,83.88 157.03,165.04 233.54,244.73l0.9 1c42.91,49.7 75.21,99.83 96.83,150.27 21.96,51.33 32.96,103.01 32.96,154.95 0,27.69 -5.29,58.58 -15.84,92.54 -10.21,32.96 -25.43,68.89 -45.55,107.67 -14.13,26.87 -28.79,52.2 -43.99,75.97l-17.09 25.78 168.7 0c19.65,-34.99 36.57,-67.46 50.64,-97.25 16,-33.88 28.56,-64.42 37.54,-91.36 6.69,-20.11 11.82,-39.92 15.25,-59.24 3.33,-18.68 5.02,-36.75 5.02,-54.1 0,-57.25 -10.13,-113.85 -30.37,-169.87 -20.38,-56.31 -51,-112.34 -91.85,-168.04 -5,-5.89 -26.06,-29.09 -63.24,-69.73l-171.74 -187.15c-88.32,-95.91 -132.49,-180.08 -132.49,-251.66 0,-42.31 8.99,-80.72 26.88,-114.99 17.82,-34.06 44.28,-63.59 79.35,-88.29 59.35,-42.12 127.14,-63.21 203.19,-63.21 27.88,0 56.13,2.4 84.64,7.22 28.32,4.81 56.65,12.03 84.98,21.65 8.85,3 17.68,6.29 26.45,9.86 25.89,-40.94 54.66,-80.73 86.32,-119.34z"/>
  <path class="fil1" d="M8692.46 1505.95c38.17,-22.46 75.31,-48.11 111.34,-76.9l0 -216.77c-17.59,22.59 -36.57,43.96 -57,64.1 -40.41,39.87 -86.29,74.78 -137.45,104.65 -102.9,60.08 -214.47,90.18 -334.65,90.18 -81.58,0 -158.67,-13.53 -231.17,-40.61 -72.37,-27.01 -139.92,-67.46 -202.5,-121.23 -62.54,-53.74 -112.75,-113.73 -150.5,-179.93 -37.8,-66.18 -63.11,-138.63 -75.85,-217.09l-4.81 -29.69 639.23 0 0 -150.32 -641.75 0 5.14 -29.89c13.49,-78.35 39.26,-150.63 77.16,-216.5 37.88,-65.77 87.75,-124.99 149.63,-177.5 62.01,-52.67 129.32,-92.2 201.82,-118.59 72.5,-26.36 150.03,-39.54 232.51,-39.54 60.66,0 119.1,7.34 175.23,22.06 56.02,14.66 109.7,36.8 161.01,66.31 51.16,29.51 96.94,64.21 137.09,103.85 20.32,20.06 39.28,41.44 56.84,64.16l0 -213.12c-34.5,-28.51 -70.89,-54.05 -109.02,-76.64 -41.67,-24.72 -85.5,-46.02 -131.34,-63.82 -45.91,-17.71 -92.97,-31.04 -141.05,-39.89 -47.73,-8.78 -97.02,-13.21 -147.69,-13.21 -112.99,0 -217.55,19.72 -313.59,59.13 -96.1,39.41 -184.23,98.78 -264.26,177.94 -79.92,79.11 -139.82,166.39 -179.65,261.66 -39.82,95.23 -59.76,198.9 -59.76,310.94 0,112.73 19.94,216.93 59.76,312.54 39.85,95.64 99.73,183.1 179.6,262.26 80.08,79.1 168.18,138.47 264.31,177.91 96.01,39.38 200.6,59.13 313.59,59.13 51.57,0 101.19,-4.37 148.79,-13.02 47.57,-8.68 93.85,-21.83 138.78,-39.36 45.15,-17.64 88.6,-38.72 130.19,-63.19z"/>
  <path class="fil3" d="M7005.59 1404.8c45.65,-43.53 68.54,-95.32 68.54,-155.11 0,-31.33 -5.66,-60.18 -16.96,-86.39 -11.32,-26.33 -28.6,-50.55 -51.58,-72.47 -23.55,-22.45 -48.65,-39.24 -75.21,-50.15 -26.15,-10.74 -54.61,-16.17 -85.19,-16.17 -31.81,0 -60.9,5.43 -87.1,16.21 -26.33,10.83 -50.6,27.31 -72.47,49.23 -22.09,22.05 -38.58,46.3 -49.4,72.65 -10.78,26.2 -16.21,55.28 -16.21,87.09 0,30.5 5.39,58.51 16.04,83.91 11,25.77 27.53,49.85 49.58,71.9 22.19,22.19 46.4,38.67 72.52,49.4 26.15,10.78 55.28,16.22 87.05,16.22 30.54,0 58.99,-5.44 85.19,-16.22 26.61,-10.91 51.75,-27.7 75.21,-50.1z"/>
  <path class="fil1" d="M5423.16 1122.22c39.8,-95.63 59.77,-199.84 59.77,-312.57 0,-111.99 -19.93,-215.65 -59.77,-310.91 -39.84,-95.3 -99.73,-182.54 -179.53,-261.66 -80,-79.13 -168.19,-138.52 -264.38,-177.98 -96.01,-39.33 -200.56,-59.11 -313.63,-59.11 -112.98,0 -217.53,19.72 -313.58,59.14 -96.09,39.42 -184.21,98.77 -264.26,177.94 -79.92,79.09 -139.81,166.36 -179.65,261.66 -32.33,77.37 -51.55,160.3 -57.63,248.77l-196.88 0 0 -689.01 -154.65 0 0 689.01 -631.86 0 0 -689.01 -154.64 0 0 1502.35 154.64 0 0 -663.01 631.86 0 0 663.01 154.65 0 0 -663.01 25.59 0 173.43 0c7.78,79.4 26.29,154.21 55.49,224.39 39.84,95.64 99.73,183.08 179.61,262.26 80.09,79.08 168.2,138.48 264.3,177.89 96.01,39.38 200.6,59.15 313.58,59.15 113.03,0 217.62,-19.77 313.63,-59.15 96.09,-39.41 184.25,-98.81 264.25,-177.94 79.93,-79.13 139.78,-166.57 179.66,-262.21zm-1421.27 -224.39l754.91 0 0 -150.32 -757.53 0c5.93,-66.56 21.52,-129.63 46.73,-189.12 32.85,-77.53 82.05,-148.81 147.38,-213.55 65.58,-64.66 137.73,-113.23 216.31,-145.72 78.75,-32.52 163.73,-48.82 254.9,-48.82 91.24,0 176.06,16.3 254.38,48.82 78.17,32.44 149.73,81.06 214.65,145.72 64.74,64.95 113.35,136.17 145.83,213.63 32.49,77.62 48.79,161.35 48.79,251.18 0,92 -16.3,177.19 -48.79,255.51 -32.48,78.26 -81.12,149.48 -145.83,213.64 -64.96,64 -136.52,112.03 -214.77,144.13 -78.37,32.14 -163.14,48.27 -254.27,48.27 -91.92,0 -177.32,-16.21 -256.23,-48.56 -78.75,-32.28 -150.81,-80.59 -215.97,-144.84 -65.17,-64.59 -114.11,-135.93 -146.76,-213.97 -21.91,-52.38 -36.49,-107.71 -43.73,-166z"/>
 </g>
</svg>
